<mxfile host="app.diagrams.net" agent="Mozilla/5.0 (Windows NT 10.0; Win64; x64; rv:134.0) Gecko/20100101 Firefox/134.0" version="26.0.6">
  <diagram name="Page-1" id="e7e014a7-5840-1c2e-5031-d8a46d1fe8dd">
    <mxGraphModel dx="1434" dy="746" grid="1" gridSize="10" guides="1" tooltips="1" connect="1" arrows="1" fold="1" page="1" pageScale="1" pageWidth="1169" pageHeight="826" background="none" math="0" shadow="0">
      <root>
        <mxCell id="0" />
        <mxCell id="1" parent="0" />
        <mxCell id="3" value="gatherResource" style="swimlane;whiteSpace=wrap" parent="1" vertex="1">
          <mxGeometry x="760" y="120" width="950" height="1050" as="geometry" />
        </mxCell>
        <mxCell id="22" value="" style="edgeStyle=elbowEdgeStyle;elbow=horizontal;align=left;verticalAlign=bottom;endArrow=open;endSize=8;exitX=0.5;exitY=1;endFill=1;rounded=0;entryX=0.5;entryY=0;entryDx=0;entryDy=0;exitDx=0;exitDy=0;" parent="3" source="_Sj6H3lR2v7R7_RWuAPX-46" target="_Sj6H3lR2v7R7_RWuAPX-55" edge="1">
          <mxGeometry x="-1" relative="1" as="geometry">
            <mxPoint x="246" y="227" as="targetPoint" />
            <Array as="points">
              <mxPoint x="246" y="197" />
            </Array>
            <mxPoint x="126" y="240" as="sourcePoint" />
          </mxGeometry>
        </mxCell>
        <mxCell id="_Sj6H3lR2v7R7_RWuAPX-50" value="false" style="edgeLabel;html=1;align=center;verticalAlign=middle;resizable=0;points=[];" parent="22" vertex="1" connectable="0">
          <mxGeometry x="0.2669" relative="1" as="geometry">
            <mxPoint y="-14" as="offset" />
          </mxGeometry>
        </mxCell>
        <mxCell id="_Sj6H3lR2v7R7_RWuAPX-46" value="enough wood" style="rhombus;fontSize=9;" parent="3" vertex="1">
          <mxGeometry x="206" y="131" width="80" height="40" as="geometry" />
        </mxCell>
        <mxCell id="_Sj6H3lR2v7R7_RWuAPX-51" value="" style="edgeStyle=elbowEdgeStyle;elbow=horizontal;align=left;verticalAlign=bottom;endArrow=open;endSize=8;exitX=0;exitY=0.5;endFill=1;rounded=0;exitDx=0;exitDy=0;entryX=1;entryY=0.5;entryDx=0;entryDy=0;" parent="3" source="_Sj6H3lR2v7R7_RWuAPX-46" target="_Sj6H3lR2v7R7_RWuAPX-160" edge="1">
          <mxGeometry x="-1" relative="1" as="geometry">
            <mxPoint x="55.340000000000146" y="151.21000000000004" as="targetPoint" />
            <Array as="points">
              <mxPoint x="156" y="150" />
            </Array>
            <mxPoint x="-104" y="119" as="sourcePoint" />
          </mxGeometry>
        </mxCell>
        <mxCell id="_Sj6H3lR2v7R7_RWuAPX-52" value="&lt;div&gt;true&lt;/div&gt;" style="edgeLabel;html=1;align=center;verticalAlign=middle;resizable=0;points=[];" parent="_Sj6H3lR2v7R7_RWuAPX-51" vertex="1" connectable="0">
          <mxGeometry x="0.2669" relative="1" as="geometry">
            <mxPoint x="3" as="offset" />
          </mxGeometry>
        </mxCell>
        <mxCell id="_Sj6H3lR2v7R7_RWuAPX-54" value="&#xa;step towards closest&#xa;free tree&#xa;" style="rounded=1;fontSize=11;" parent="3" vertex="1">
          <mxGeometry x="260" y="478" width="110" height="50" as="geometry" />
        </mxCell>
        <mxCell id="_Sj6H3lR2v7R7_RWuAPX-55" value="enemy in base" style="rhombus;fontSize=9;" parent="3" vertex="1">
          <mxGeometry x="206" y="224" width="80" height="40" as="geometry" />
        </mxCell>
        <mxCell id="_Sj6H3lR2v7R7_RWuAPX-56" value="wood or cake?" style="rhombus;fontSize=9;" parent="3" vertex="1">
          <mxGeometry x="380" y="413" width="80" height="40" as="geometry" />
        </mxCell>
        <mxCell id="_Sj6H3lR2v7R7_RWuAPX-65" value="" style="edgeStyle=elbowEdgeStyle;elbow=horizontal;align=left;verticalAlign=bottom;endArrow=open;endSize=8;exitX=0.5;exitY=1;endFill=1;rounded=0;exitDx=0;exitDy=0;entryX=0.5;entryY=0;entryDx=0;entryDy=0;" parent="3" source="_Sj6H3lR2v7R7_RWuAPX-55" edge="1">
          <mxGeometry x="-1" relative="1" as="geometry">
            <mxPoint x="246" y="318" as="targetPoint" />
            <Array as="points">
              <mxPoint x="246" y="280" />
            </Array>
            <mxPoint x="279.56999999999994" y="347" as="sourcePoint" />
          </mxGeometry>
        </mxCell>
        <mxCell id="_Sj6H3lR2v7R7_RWuAPX-66" value="false" style="edgeLabel;html=1;align=center;verticalAlign=middle;resizable=0;points=[];" parent="_Sj6H3lR2v7R7_RWuAPX-65" vertex="1" connectable="0">
          <mxGeometry x="0.2669" relative="1" as="geometry">
            <mxPoint x="-3" as="offset" />
          </mxGeometry>
        </mxCell>
        <mxCell id="_Sj6H3lR2v7R7_RWuAPX-70" value="" style="ellipse;shape=startState;fillColor=#000000;strokeColor=#000000;" parent="3" vertex="1">
          <mxGeometry x="231" y="60" width="30" height="30" as="geometry" />
        </mxCell>
        <mxCell id="_Sj6H3lR2v7R7_RWuAPX-71" value="" style="edgeStyle=elbowEdgeStyle;elbow=horizontal;verticalAlign=bottom;endArrow=open;endSize=8;endFill=1;rounded=0" parent="3" source="_Sj6H3lR2v7R7_RWuAPX-70" edge="1">
          <mxGeometry x="-70" y="-108" as="geometry">
            <mxPoint x="246" y="130" as="targetPoint" />
          </mxGeometry>
        </mxCell>
        <mxCell id="_Sj6H3lR2v7R7_RWuAPX-74" value="step towards closest&#xa;free cake" style="rounded=1;fontSize=11;" parent="3" vertex="1">
          <mxGeometry x="475" y="478" width="110" height="50" as="geometry" />
        </mxCell>
        <mxCell id="_Sj6H3lR2v7R7_RWuAPX-75" value="" style="edgeStyle=elbowEdgeStyle;elbow=horizontal;align=left;verticalAlign=bottom;endArrow=open;endSize=8;endFill=1;rounded=0;entryX=0.5;entryY=0;entryDx=0;entryDy=0;exitX=1;exitY=0.5;exitDx=0;exitDy=0;" parent="3" source="_Sj6H3lR2v7R7_RWuAPX-56" target="_Sj6H3lR2v7R7_RWuAPX-74" edge="1">
          <mxGeometry x="-1" relative="1" as="geometry">
            <mxPoint x="565" y="432.5" as="targetPoint" />
            <Array as="points">
              <mxPoint x="530" y="451" />
            </Array>
            <mxPoint x="475" y="432.5" as="sourcePoint" />
          </mxGeometry>
        </mxCell>
        <mxCell id="_Sj6H3lR2v7R7_RWuAPX-76" value="cake" style="edgeLabel;html=1;align=center;verticalAlign=middle;resizable=0;points=[];" parent="_Sj6H3lR2v7R7_RWuAPX-75" vertex="1" connectable="0">
          <mxGeometry x="0.2669" relative="1" as="geometry">
            <mxPoint x="-17" y="-4" as="offset" />
          </mxGeometry>
        </mxCell>
        <mxCell id="_Sj6H3lR2v7R7_RWuAPX-77" value="" style="edgeStyle=elbowEdgeStyle;elbow=horizontal;align=left;verticalAlign=bottom;endArrow=open;endSize=8;endFill=1;rounded=0;entryX=0.5;entryY=0;entryDx=0;entryDy=0;exitX=0;exitY=0.5;exitDx=0;exitDy=0;" parent="3" source="_Sj6H3lR2v7R7_RWuAPX-56" target="_Sj6H3lR2v7R7_RWuAPX-54" edge="1">
          <mxGeometry x="-1" relative="1" as="geometry">
            <mxPoint x="555" y="488" as="targetPoint" />
            <Array as="points">
              <mxPoint x="315" y="461" />
            </Array>
            <mxPoint x="470" y="443" as="sourcePoint" />
          </mxGeometry>
        </mxCell>
        <mxCell id="_Sj6H3lR2v7R7_RWuAPX-78" value="wood" style="edgeLabel;html=1;align=center;verticalAlign=middle;resizable=0;points=[];" parent="_Sj6H3lR2v7R7_RWuAPX-77" vertex="1" connectable="0">
          <mxGeometry x="0.2669" relative="1" as="geometry">
            <mxPoint x="18" y="-4" as="offset" />
          </mxGeometry>
        </mxCell>
        <mxCell id="_Sj6H3lR2v7R7_RWuAPX-91" value="" style="edgeStyle=elbowEdgeStyle;elbow=horizontal;align=left;verticalAlign=bottom;endArrow=open;endSize=8;endFill=1;rounded=0;exitX=0.5;exitY=1;exitDx=0;exitDy=0;entryX=0.5;entryY=0;entryDx=0;entryDy=0;" parent="3" source="_Sj6H3lR2v7R7_RWuAPX-103" target="_Sj6H3lR2v7R7_RWuAPX-141" edge="1">
          <mxGeometry x="-1" relative="1" as="geometry">
            <mxPoint x="345" y="751" as="targetPoint" />
            <Array as="points" />
            <mxPoint x="315" y="681" as="sourcePoint" />
          </mxGeometry>
        </mxCell>
        <mxCell id="_Sj6H3lR2v7R7_RWuAPX-92" value="&lt;div&gt;false&lt;/div&gt;" style="edgeLabel;html=1;align=center;verticalAlign=middle;resizable=0;points=[];" parent="_Sj6H3lR2v7R7_RWuAPX-91" vertex="1" connectable="0">
          <mxGeometry x="0.2669" relative="1" as="geometry">
            <mxPoint x="-17" as="offset" />
          </mxGeometry>
        </mxCell>
        <mxCell id="_Sj6H3lR2v7R7_RWuAPX-104" value="" style="edgeStyle=elbowEdgeStyle;elbow=horizontal;verticalAlign=bottom;endArrow=open;endSize=8;endFill=1;rounded=0;entryX=0.5;entryY=0;entryDx=0;entryDy=0;exitX=0.5;exitY=1;exitDx=0;exitDy=0;" parent="3" source="_Sj6H3lR2v7R7_RWuAPX-54" target="_Sj6H3lR2v7R7_RWuAPX-103" edge="1">
          <mxGeometry x="-180" y="-236" as="geometry">
            <mxPoint x="455" y="779" as="targetPoint" />
            <mxPoint x="455" y="656" as="sourcePoint" />
          </mxGeometry>
        </mxCell>
        <mxCell id="_Sj6H3lR2v7R7_RWuAPX-105" value="underattack" style="rhombus;fontSize=9;" parent="3" vertex="1">
          <mxGeometry x="490" y="559" width="80" height="40" as="geometry" />
        </mxCell>
        <mxCell id="_Sj6H3lR2v7R7_RWuAPX-108" value="" style="edgeStyle=elbowEdgeStyle;elbow=horizontal;verticalAlign=bottom;endArrow=open;endSize=8;endFill=1;rounded=0;entryX=0.5;entryY=0;entryDx=0;entryDy=0;exitX=0.5;exitY=1;exitDx=0;exitDy=0;" parent="3" source="_Sj6H3lR2v7R7_RWuAPX-74" target="_Sj6H3lR2v7R7_RWuAPX-105" edge="1">
          <mxGeometry x="-290" y="-364" as="geometry">
            <mxPoint x="514.76" y="559" as="targetPoint" />
            <mxPoint x="514.76" y="528" as="sourcePoint" />
          </mxGeometry>
        </mxCell>
        <mxCell id="_Sj6H3lR2v7R7_RWuAPX-103" value="underattack" style="rhombus;fontSize=9;" parent="3" vertex="1">
          <mxGeometry x="275" y="559" width="80" height="40" as="geometry" />
        </mxCell>
        <mxCell id="_Sj6H3lR2v7R7_RWuAPX-120" value="" style="edgeStyle=elbowEdgeStyle;elbow=horizontal;align=left;verticalAlign=bottom;endArrow=open;endSize=8;endFill=1;rounded=0;exitX=0.5;exitY=1;exitDx=0;exitDy=0;entryX=0.5;entryY=0;entryDx=0;entryDy=0;" parent="3" source="_Sj6H3lR2v7R7_RWuAPX-105" target="_Sj6H3lR2v7R7_RWuAPX-145" edge="1">
          <mxGeometry x="-1" relative="1" as="geometry">
            <mxPoint x="500" y="701" as="targetPoint" />
            <Array as="points" />
            <mxPoint x="500" y="641" as="sourcePoint" />
          </mxGeometry>
        </mxCell>
        <mxCell id="_Sj6H3lR2v7R7_RWuAPX-121" value="&lt;div&gt;false&lt;/div&gt;" style="edgeLabel;html=1;align=center;verticalAlign=middle;resizable=0;points=[];" parent="_Sj6H3lR2v7R7_RWuAPX-120" vertex="1" connectable="0">
          <mxGeometry x="0.2669" relative="1" as="geometry">
            <mxPoint x="-17" as="offset" />
          </mxGeometry>
        </mxCell>
        <mxCell id="_Sj6H3lR2v7R7_RWuAPX-128" value="tree&#xa;reached" style="rhombus;fontSize=9;" parent="3" vertex="1">
          <mxGeometry x="275" y="764" width="80" height="40" as="geometry" />
        </mxCell>
        <mxCell id="_Sj6H3lR2v7R7_RWuAPX-132" value="" style="edgeStyle=elbowEdgeStyle;elbow=horizontal;align=left;verticalAlign=bottom;endArrow=open;endSize=8;endFill=1;rounded=0;exitX=0.5;exitY=1;exitDx=0;exitDy=0;entryX=0.5;entryY=0;entryDx=0;entryDy=0;" parent="3" source="_Sj6H3lR2v7R7_RWuAPX-128" target="cdu1bLbmDguMT37D17dH-34" edge="1">
          <mxGeometry x="-1" relative="1" as="geometry">
            <mxPoint x="425" y="1001" as="targetPoint" />
            <Array as="points" />
            <mxPoint x="344.57000000000005" y="1061" as="sourcePoint" />
          </mxGeometry>
        </mxCell>
        <mxCell id="_Sj6H3lR2v7R7_RWuAPX-133" value="true" style="edgeLabel;html=1;align=center;verticalAlign=middle;resizable=0;points=[];" parent="_Sj6H3lR2v7R7_RWuAPX-132" vertex="1" connectable="0">
          <mxGeometry x="0.2669" relative="1" as="geometry">
            <mxPoint x="-17" as="offset" />
          </mxGeometry>
        </mxCell>
        <mxCell id="_Sj6H3lR2v7R7_RWuAPX-134" value="" style="edgeStyle=elbowEdgeStyle;elbow=horizontal;align=left;verticalAlign=bottom;endArrow=open;endSize=8;endFill=1;rounded=0;exitX=1;exitY=0.5;exitDx=0;exitDy=0;entryX=1;entryY=0.5;entryDx=0;entryDy=0;" parent="3" source="_Sj6H3lR2v7R7_RWuAPX-128" target="_Sj6H3lR2v7R7_RWuAPX-54" edge="1">
          <mxGeometry x="-1" relative="1" as="geometry">
            <mxPoint x="368" y="503" as="targetPoint" />
            <Array as="points">
              <mxPoint x="388" y="701" />
            </Array>
            <mxPoint x="353" y="901" as="sourcePoint" />
          </mxGeometry>
        </mxCell>
        <mxCell id="_Sj6H3lR2v7R7_RWuAPX-135" value="&lt;div&gt;false&lt;/div&gt;" style="edgeLabel;html=1;align=center;verticalAlign=middle;resizable=0;points=[];" parent="_Sj6H3lR2v7R7_RWuAPX-134" vertex="1" connectable="0">
          <mxGeometry x="0.2669" relative="1" as="geometry">
            <mxPoint x="-17" as="offset" />
          </mxGeometry>
        </mxCell>
        <mxCell id="_Sj6H3lR2v7R7_RWuAPX-136" value="cake&#xa;reached" style="rhombus;fontSize=9;" parent="3" vertex="1">
          <mxGeometry x="490" y="764" width="80" height="40" as="geometry" />
        </mxCell>
        <mxCell id="_Sj6H3lR2v7R7_RWuAPX-137" value="" style="edgeStyle=elbowEdgeStyle;elbow=horizontal;align=left;verticalAlign=bottom;endArrow=open;endSize=8;endFill=1;rounded=0;exitX=1;exitY=0.5;exitDx=0;exitDy=0;entryX=1;entryY=0.5;entryDx=0;entryDy=0;" parent="3" source="_Sj6H3lR2v7R7_RWuAPX-136" target="_Sj6H3lR2v7R7_RWuAPX-74" edge="1">
          <mxGeometry x="-1" relative="1" as="geometry">
            <mxPoint x="605" y="501" as="targetPoint" />
            <Array as="points">
              <mxPoint x="600" y="641" />
            </Array>
            <mxPoint x="590" y="769" as="sourcePoint" />
          </mxGeometry>
        </mxCell>
        <mxCell id="_Sj6H3lR2v7R7_RWuAPX-138" value="&lt;div&gt;false&lt;/div&gt;" style="edgeLabel;html=1;align=center;verticalAlign=middle;resizable=0;points=[];" parent="_Sj6H3lR2v7R7_RWuAPX-137" vertex="1" connectable="0">
          <mxGeometry x="0.2669" relative="1" as="geometry">
            <mxPoint x="-17" as="offset" />
          </mxGeometry>
        </mxCell>
        <mxCell id="_Sj6H3lR2v7R7_RWuAPX-139" value="" style="edgeStyle=elbowEdgeStyle;elbow=horizontal;align=left;verticalAlign=bottom;endArrow=open;endSize=8;endFill=1;rounded=0;exitX=0.5;exitY=1;exitDx=0;exitDy=0;entryX=0.5;entryY=0;entryDx=0;entryDy=0;" parent="3" source="_Sj6H3lR2v7R7_RWuAPX-136" target="cdu1bLbmDguMT37D17dH-47" edge="1">
          <mxGeometry x="-1" relative="1" as="geometry">
            <mxPoint x="425" y="940.0000000000002" as="targetPoint" />
            <Array as="points">
              <mxPoint x="425" y="961" />
            </Array>
            <mxPoint x="500.33000000000004" y="1081" as="sourcePoint" />
          </mxGeometry>
        </mxCell>
        <mxCell id="_Sj6H3lR2v7R7_RWuAPX-140" value="true" style="edgeLabel;html=1;align=center;verticalAlign=middle;resizable=0;points=[];" parent="_Sj6H3lR2v7R7_RWuAPX-139" vertex="1" connectable="0">
          <mxGeometry x="0.2669" relative="1" as="geometry">
            <mxPoint x="-17" as="offset" />
          </mxGeometry>
        </mxCell>
        <mxCell id="_Sj6H3lR2v7R7_RWuAPX-141" value="princess &#xa;rescued" style="rhombus;fontSize=9;" parent="3" vertex="1">
          <mxGeometry x="275" y="657" width="80" height="40" as="geometry" />
        </mxCell>
        <mxCell id="_Sj6H3lR2v7R7_RWuAPX-145" value="princess &#xa;rescued" style="rhombus;fontSize=9;" parent="3" vertex="1">
          <mxGeometry x="490" y="657" width="80" height="40" as="geometry" />
        </mxCell>
        <mxCell id="_Sj6H3lR2v7R7_RWuAPX-151" value="" style="edgeStyle=elbowEdgeStyle;elbow=horizontal;align=left;verticalAlign=bottom;endArrow=open;endSize=8;endFill=1;rounded=0;exitX=0.5;exitY=1;exitDx=0;exitDy=0;entryX=0.5;entryY=0;entryDx=0;entryDy=0;" parent="3" source="_Sj6H3lR2v7R7_RWuAPX-141" target="_Sj6H3lR2v7R7_RWuAPX-128" edge="1">
          <mxGeometry x="-1" relative="1" as="geometry">
            <mxPoint x="344.75" y="881" as="targetPoint" />
            <Array as="points" />
            <mxPoint x="344.75" y="795" as="sourcePoint" />
          </mxGeometry>
        </mxCell>
        <mxCell id="_Sj6H3lR2v7R7_RWuAPX-152" value="false" style="edgeLabel;html=1;align=center;verticalAlign=middle;resizable=0;points=[];" parent="_Sj6H3lR2v7R7_RWuAPX-151" vertex="1" connectable="0">
          <mxGeometry x="0.2669" relative="1" as="geometry">
            <mxPoint x="-17" as="offset" />
          </mxGeometry>
        </mxCell>
        <mxCell id="_Sj6H3lR2v7R7_RWuAPX-153" value="" style="edgeStyle=elbowEdgeStyle;elbow=horizontal;align=left;verticalAlign=bottom;endArrow=open;endSize=8;endFill=1;rounded=0;exitX=0.5;exitY=1;exitDx=0;exitDy=0;entryX=0.5;entryY=0;entryDx=0;entryDy=0;" parent="3" source="_Sj6H3lR2v7R7_RWuAPX-145" target="_Sj6H3lR2v7R7_RWuAPX-136" edge="1">
          <mxGeometry x="-1" relative="1" as="geometry">
            <mxPoint x="515" y="891" as="targetPoint" />
            <Array as="points" />
            <mxPoint x="480.31999999999994" y="921" as="sourcePoint" />
          </mxGeometry>
        </mxCell>
        <mxCell id="_Sj6H3lR2v7R7_RWuAPX-154" value="false" style="edgeLabel;html=1;align=center;verticalAlign=middle;resizable=0;points=[];" parent="_Sj6H3lR2v7R7_RWuAPX-153" vertex="1" connectable="0">
          <mxGeometry x="0.2669" relative="1" as="geometry">
            <mxPoint x="-17" as="offset" />
          </mxGeometry>
        </mxCell>
        <mxCell id="_Sj6H3lR2v7R7_RWuAPX-160" value="&lt;font style=&quot;font-size: 6px;&quot;&gt;&lt;b&gt;buildLadder&lt;/b&gt;&lt;/font&gt;" style="rounded=0;whiteSpace=wrap;html=1;align=center;" parent="3" vertex="1">
          <mxGeometry x="96" y="141" width="50" height="20" as="geometry" />
        </mxCell>
        <mxCell id="_Sj6H3lR2v7R7_RWuAPX-163" value="&lt;font style=&quot;font-size: 6px;&quot;&gt;&lt;b&gt;attackEnemy&lt;/b&gt;&lt;/font&gt;" style="rounded=0;whiteSpace=wrap;html=1;align=center;" parent="3" vertex="1">
          <mxGeometry x="96" y="234" width="50" height="20" as="geometry" />
        </mxCell>
        <mxCell id="_Sj6H3lR2v7R7_RWuAPX-161" value="" style="edgeStyle=elbowEdgeStyle;elbow=horizontal;align=left;verticalAlign=bottom;endArrow=open;endSize=8;endFill=1;rounded=0;entryX=1;entryY=0.5;entryDx=0;entryDy=0;exitX=0;exitY=0.5;exitDx=0;exitDy=0;" parent="3" source="_Sj6H3lR2v7R7_RWuAPX-55" target="_Sj6H3lR2v7R7_RWuAPX-163" edge="1">
          <mxGeometry x="-1" relative="1" as="geometry">
            <mxPoint x="65.34000000000015" y="161.21000000000004" as="targetPoint" />
            <Array as="points">
              <mxPoint x="180" y="244" />
            </Array>
            <mxPoint x="206" y="320" as="sourcePoint" />
          </mxGeometry>
        </mxCell>
        <mxCell id="_Sj6H3lR2v7R7_RWuAPX-162" value="&lt;div&gt;true&lt;/div&gt;" style="edgeLabel;html=1;align=center;verticalAlign=middle;resizable=0;points=[];" parent="_Sj6H3lR2v7R7_RWuAPX-161" vertex="1" connectable="0">
          <mxGeometry x="0.2669" relative="1" as="geometry">
            <mxPoint x="3" as="offset" />
          </mxGeometry>
        </mxCell>
        <mxCell id="_Sj6H3lR2v7R7_RWuAPX-168" value="" style="edgeStyle=elbowEdgeStyle;elbow=horizontal;align=left;verticalAlign=bottom;endArrow=open;endSize=8;endFill=1;rounded=0;exitX=0;exitY=0.5;exitDx=0;exitDy=0;entryX=1;entryY=0.5;entryDx=0;entryDy=0;" parent="3" source="_Sj6H3lR2v7R7_RWuAPX-141" target="_Sj6H3lR2v7R7_RWuAPX-170" edge="1">
          <mxGeometry x="-1" relative="1" as="geometry">
            <mxPoint x="261" y="775" as="targetPoint" />
            <Array as="points" />
            <mxPoint x="306" y="775" as="sourcePoint" />
          </mxGeometry>
        </mxCell>
        <mxCell id="_Sj6H3lR2v7R7_RWuAPX-169" value="true" style="edgeLabel;html=1;align=center;verticalAlign=middle;resizable=0;points=[];" parent="_Sj6H3lR2v7R7_RWuAPX-168" vertex="1" connectable="0">
          <mxGeometry x="0.2669" relative="1" as="geometry">
            <mxPoint x="9" as="offset" />
          </mxGeometry>
        </mxCell>
        <mxCell id="_Sj6H3lR2v7R7_RWuAPX-170" value="&lt;font style=&quot;font-size: 6px;&quot;&gt;&lt;b&gt;protectPrincess&lt;/b&gt;&lt;/font&gt;" style="rounded=0;whiteSpace=wrap;html=1;align=center;" parent="3" vertex="1">
          <mxGeometry x="181" y="667" width="50" height="20" as="geometry" />
        </mxCell>
        <mxCell id="_Sj6H3lR2v7R7_RWuAPX-173" value="" style="edgeStyle=elbowEdgeStyle;elbow=horizontal;align=left;verticalAlign=bottom;endArrow=open;endSize=8;endFill=1;rounded=0;exitX=0;exitY=0.5;exitDx=0;exitDy=0;entryX=1;entryY=0.5;entryDx=0;entryDy=0;" parent="3" source="_Sj6H3lR2v7R7_RWuAPX-103" target="_Sj6H3lR2v7R7_RWuAPX-175" edge="1">
          <mxGeometry x="-1" relative="1" as="geometry">
            <mxPoint x="261" y="579" as="targetPoint" />
            <Array as="points" />
            <mxPoint x="306" y="579" as="sourcePoint" />
          </mxGeometry>
        </mxCell>
        <mxCell id="_Sj6H3lR2v7R7_RWuAPX-174" value="true" style="edgeLabel;html=1;align=center;verticalAlign=middle;resizable=0;points=[];" parent="_Sj6H3lR2v7R7_RWuAPX-173" vertex="1" connectable="0">
          <mxGeometry x="0.2669" relative="1" as="geometry">
            <mxPoint x="9" as="offset" />
          </mxGeometry>
        </mxCell>
        <mxCell id="_Sj6H3lR2v7R7_RWuAPX-175" value="&lt;font style=&quot;font-size: 6px;&quot;&gt;&lt;b&gt;attackEnemy&lt;/b&gt;&lt;/font&gt;" style="rounded=0;whiteSpace=wrap;html=1;align=center;" parent="3" vertex="1">
          <mxGeometry x="181" y="569" width="50" height="20" as="geometry" />
        </mxCell>
        <mxCell id="_Sj6H3lR2v7R7_RWuAPX-176" value="" style="edgeStyle=elbowEdgeStyle;elbow=horizontal;align=left;verticalAlign=bottom;endArrow=open;endSize=8;endFill=1;rounded=0;exitX=0;exitY=0.5;exitDx=0;exitDy=0;entryX=1;entryY=0.5;entryDx=0;entryDy=0;" parent="3" source="_Sj6H3lR2v7R7_RWuAPX-145" target="_Sj6H3lR2v7R7_RWuAPX-178" edge="1">
          <mxGeometry x="-1" relative="1" as="geometry">
            <mxPoint x="480" y="775" as="targetPoint" />
            <Array as="points" />
            <mxPoint x="525" y="775" as="sourcePoint" />
          </mxGeometry>
        </mxCell>
        <mxCell id="_Sj6H3lR2v7R7_RWuAPX-177" value="true" style="edgeLabel;html=1;align=center;verticalAlign=middle;resizable=0;points=[];" parent="_Sj6H3lR2v7R7_RWuAPX-176" vertex="1" connectable="0">
          <mxGeometry x="0.2669" relative="1" as="geometry">
            <mxPoint x="10" as="offset" />
          </mxGeometry>
        </mxCell>
        <mxCell id="_Sj6H3lR2v7R7_RWuAPX-178" value="&lt;font style=&quot;font-size: 6px;&quot;&gt;&lt;b&gt;protectPrincess&lt;/b&gt;&lt;/font&gt;" style="rounded=0;whiteSpace=wrap;html=1;align=center;" parent="3" vertex="1">
          <mxGeometry x="400" y="667" width="50" height="20" as="geometry" />
        </mxCell>
        <mxCell id="_Sj6H3lR2v7R7_RWuAPX-179" value="" style="edgeStyle=elbowEdgeStyle;elbow=horizontal;align=left;verticalAlign=bottom;endArrow=open;endSize=8;endFill=1;rounded=0;exitX=0;exitY=0.5;exitDx=0;exitDy=0;entryX=1;entryY=0.5;entryDx=0;entryDy=0;" parent="3" source="_Sj6H3lR2v7R7_RWuAPX-105" target="_Sj6H3lR2v7R7_RWuAPX-181" edge="1">
          <mxGeometry x="-1" relative="1" as="geometry">
            <mxPoint x="480" y="579" as="targetPoint" />
            <Array as="points" />
            <mxPoint x="525" y="579" as="sourcePoint" />
          </mxGeometry>
        </mxCell>
        <mxCell id="_Sj6H3lR2v7R7_RWuAPX-180" value="true" style="edgeLabel;html=1;align=center;verticalAlign=middle;resizable=0;points=[];" parent="_Sj6H3lR2v7R7_RWuAPX-179" vertex="1" connectable="0">
          <mxGeometry x="0.2669" relative="1" as="geometry">
            <mxPoint x="10" as="offset" />
          </mxGeometry>
        </mxCell>
        <mxCell id="_Sj6H3lR2v7R7_RWuAPX-181" value="&lt;font style=&quot;font-size: 6px;&quot;&gt;&lt;b&gt;attackEnemy&lt;/b&gt;&lt;/font&gt;" style="rounded=0;whiteSpace=wrap;html=1;align=center;" parent="3" vertex="1">
          <mxGeometry x="400" y="569" width="50" height="20" as="geometry" />
        </mxCell>
        <mxCell id="cdu1bLbmDguMT37D17dH-24" value="" style="edgeStyle=elbowEdgeStyle;elbow=horizontal;align=left;verticalAlign=bottom;endArrow=open;endSize=8;exitX=0.5;exitY=1;endFill=1;rounded=0;exitDx=0;exitDy=0;entryX=0.5;entryY=0;entryDx=0;entryDy=0;" parent="3" source="cdu1bLbmDguMT37D17dH-23" target="_Sj6H3lR2v7R7_RWuAPX-56" edge="1">
          <mxGeometry x="-1" relative="1" as="geometry">
            <mxPoint x="420" y="382" as="targetPoint" />
            <Array as="points">
              <mxPoint x="419.56999999999994" y="374" />
            </Array>
            <mxPoint x="419.56999999999994" y="347" as="sourcePoint" />
          </mxGeometry>
        </mxCell>
        <mxCell id="cdu1bLbmDguMT37D17dH-25" value="false" style="edgeLabel;html=1;align=center;verticalAlign=middle;resizable=0;points=[];" parent="cdu1bLbmDguMT37D17dH-24" vertex="1" connectable="0">
          <mxGeometry x="0.2669" relative="1" as="geometry">
            <mxPoint y="-14" as="offset" />
          </mxGeometry>
        </mxCell>
        <mxCell id="cdu1bLbmDguMT37D17dH-27" value="" style="edgeStyle=elbowEdgeStyle;elbow=horizontal;align=left;verticalAlign=bottom;endArrow=open;endSize=8;endFill=1;rounded=0;entryX=0;entryY=0.5;entryDx=0;entryDy=0;exitX=1;exitY=0.5;exitDx=0;exitDy=0;" parent="3" source="cdu1bLbmDguMT37D17dH-23" target="cdu1bLbmDguMT37D17dH-26" edge="1">
          <mxGeometry x="-1" relative="1" as="geometry">
            <mxPoint x="239.34000000000015" y="182.21000000000004" as="targetPoint" />
            <Array as="points">
              <mxPoint x="500" y="331" />
            </Array>
            <mxPoint x="460" y="241" as="sourcePoint" />
          </mxGeometry>
        </mxCell>
        <mxCell id="cdu1bLbmDguMT37D17dH-28" value="&lt;div&gt;true&lt;/div&gt;" style="edgeLabel;html=1;align=center;verticalAlign=middle;resizable=0;points=[];" parent="cdu1bLbmDguMT37D17dH-27" vertex="1" connectable="0">
          <mxGeometry x="0.2669" relative="1" as="geometry">
            <mxPoint x="3" as="offset" />
          </mxGeometry>
        </mxCell>
        <mxCell id="cdu1bLbmDguMT37D17dH-23" value="princess rescued" style="rhombus;fontSize=9;" parent="3" vertex="1">
          <mxGeometry x="380" y="323" width="80" height="40" as="geometry" />
        </mxCell>
        <mxCell id="cdu1bLbmDguMT37D17dH-26" value="&lt;font style=&quot;font-size: 6px;&quot;&gt;&lt;b&gt;protectPrincess&lt;/b&gt;&lt;/font&gt;" style="rounded=0;whiteSpace=wrap;html=1;align=center;" parent="3" vertex="1">
          <mxGeometry x="540" y="333" width="50" height="20" as="geometry" />
        </mxCell>
        <mxCell id="cdu1bLbmDguMT37D17dH-34" value="tree&#xa;broken&#xa;" style="rhombus;fontSize=9;" parent="3" vertex="1">
          <mxGeometry x="275" y="861" width="80" height="40" as="geometry" />
        </mxCell>
        <mxCell id="cdu1bLbmDguMT37D17dH-35" value="" style="edgeStyle=elbowEdgeStyle;elbow=horizontal;align=left;verticalAlign=bottom;endArrow=open;endSize=8;endFill=1;rounded=0;exitX=1;exitY=0.5;exitDx=0;exitDy=0;entryX=0.5;entryY=0;entryDx=0;entryDy=0;" parent="3" source="cdu1bLbmDguMT37D17dH-34" target="cdu1bLbmDguMT37D17dH-47" edge="1">
          <mxGeometry x="-1" relative="1" as="geometry">
            <mxPoint x="425" y="940.0000000000002" as="targetPoint" />
            <Array as="points">
              <mxPoint x="425" y="910" />
            </Array>
            <mxPoint x="408" y="883" as="sourcePoint" />
          </mxGeometry>
        </mxCell>
        <mxCell id="cdu1bLbmDguMT37D17dH-36" value="true" style="edgeLabel;html=1;align=center;verticalAlign=middle;resizable=0;points=[];" parent="cdu1bLbmDguMT37D17dH-35" vertex="1" connectable="0">
          <mxGeometry x="0.2669" relative="1" as="geometry">
            <mxPoint x="-17" as="offset" />
          </mxGeometry>
        </mxCell>
        <mxCell id="cdu1bLbmDguMT37D17dH-37" value="" style="edgeStyle=elbowEdgeStyle;elbow=horizontal;align=left;verticalAlign=bottom;endArrow=open;endSize=8;endFill=1;rounded=0;exitX=0;exitY=0.5;exitDx=0;exitDy=0;entryX=0.5;entryY=0;entryDx=0;entryDy=0;" parent="3" source="cdu1bLbmDguMT37D17dH-34" target="cdu1bLbmDguMT37D17dH-39" edge="1">
          <mxGeometry x="-1" relative="1" as="geometry">
            <mxPoint x="210.36999999999995" y="937" as="targetPoint" />
            <Array as="points">
              <mxPoint x="145" y="880" />
            </Array>
            <mxPoint x="210.36999999999995" y="870" as="sourcePoint" />
          </mxGeometry>
        </mxCell>
        <mxCell id="cdu1bLbmDguMT37D17dH-38" value="false" style="edgeLabel;html=1;align=center;verticalAlign=middle;resizable=0;points=[];" parent="cdu1bLbmDguMT37D17dH-37" vertex="1" connectable="0">
          <mxGeometry x="0.2669" relative="1" as="geometry">
            <mxPoint x="-17" as="offset" />
          </mxGeometry>
        </mxCell>
        <mxCell id="cdu1bLbmDguMT37D17dH-39" value="attack tree" style="rounded=1;fontSize=11;" parent="3" vertex="1">
          <mxGeometry x="90" y="900" width="110" height="50" as="geometry" />
        </mxCell>
        <mxCell id="cdu1bLbmDguMT37D17dH-40" value="underattack" style="rhombus;fontSize=9;" parent="3" vertex="1">
          <mxGeometry x="105" y="980" width="80" height="40" as="geometry" />
        </mxCell>
        <mxCell id="cdu1bLbmDguMT37D17dH-41" value="" style="edgeStyle=elbowEdgeStyle;elbow=horizontal;align=left;verticalAlign=bottom;endArrow=open;endSize=8;endFill=1;rounded=0;exitX=0;exitY=0.5;exitDx=0;exitDy=0;entryX=1;entryY=0.5;entryDx=0;entryDy=0;" parent="3" source="cdu1bLbmDguMT37D17dH-40" target="cdu1bLbmDguMT37D17dH-43" edge="1">
          <mxGeometry x="-1" relative="1" as="geometry">
            <mxPoint x="87" y="1000" as="targetPoint" />
            <Array as="points" />
            <mxPoint x="132" y="1000" as="sourcePoint" />
          </mxGeometry>
        </mxCell>
        <mxCell id="cdu1bLbmDguMT37D17dH-42" value="true" style="edgeLabel;html=1;align=center;verticalAlign=middle;resizable=0;points=[];" parent="cdu1bLbmDguMT37D17dH-41" vertex="1" connectable="0">
          <mxGeometry x="0.2669" relative="1" as="geometry">
            <mxPoint x="9" as="offset" />
          </mxGeometry>
        </mxCell>
        <mxCell id="cdu1bLbmDguMT37D17dH-43" value="&lt;font style=&quot;font-size: 6px;&quot;&gt;&lt;b&gt;attackEnemy&lt;/b&gt;&lt;/font&gt;" style="rounded=0;whiteSpace=wrap;html=1;align=center;" parent="3" vertex="1">
          <mxGeometry x="7" y="990" width="50" height="20" as="geometry" />
        </mxCell>
        <mxCell id="cdu1bLbmDguMT37D17dH-44" value="" style="edgeStyle=elbowEdgeStyle;elbow=horizontal;verticalAlign=bottom;endArrow=open;endSize=8;endFill=1;rounded=0;entryX=0.5;entryY=0;entryDx=0;entryDy=0;exitX=0.5;exitY=1;exitDx=0;exitDy=0;" parent="3" source="cdu1bLbmDguMT37D17dH-39" target="cdu1bLbmDguMT37D17dH-40" edge="1">
          <mxGeometry x="-940" y="-356" as="geometry">
            <mxPoint x="325" y="569" as="targetPoint" />
            <mxPoint x="325" y="538" as="sourcePoint" />
          </mxGeometry>
        </mxCell>
        <mxCell id="cdu1bLbmDguMT37D17dH-45" value="" style="edgeStyle=elbowEdgeStyle;elbow=horizontal;align=left;verticalAlign=bottom;endArrow=open;endSize=8;endFill=1;rounded=0;exitX=1;exitY=0.5;exitDx=0;exitDy=0;entryX=0.5;entryY=1;entryDx=0;entryDy=0;" parent="3" source="cdu1bLbmDguMT37D17dH-40" target="cdu1bLbmDguMT37D17dH-34" edge="1">
          <mxGeometry x="-1" relative="1" as="geometry">
            <mxPoint x="155" y="910" as="targetPoint" />
            <Array as="points">
              <mxPoint x="315" y="960" />
            </Array>
            <mxPoint x="285" y="891" as="sourcePoint" />
          </mxGeometry>
        </mxCell>
        <mxCell id="cdu1bLbmDguMT37D17dH-46" value="false" style="edgeLabel;html=1;align=center;verticalAlign=middle;resizable=0;points=[];" parent="cdu1bLbmDguMT37D17dH-45" vertex="1" connectable="0">
          <mxGeometry x="0.2669" relative="1" as="geometry">
            <mxPoint x="-17" as="offset" />
          </mxGeometry>
        </mxCell>
        <mxCell id="cdu1bLbmDguMT37D17dH-47" value="pickup resource" style="rounded=1;fontSize=11;" parent="3" vertex="1">
          <mxGeometry x="370" y="975" width="110" height="50" as="geometry" />
        </mxCell>
        <mxCell id="cdu1bLbmDguMT37D17dH-48" value="&#xa;step toward &#xa;GB_a&#xa;" style="rounded=1;" parent="3" vertex="1">
          <mxGeometry x="730" y="975" width="110" height="50" as="geometry" />
        </mxCell>
        <mxCell id="cdu1bLbmDguMT37D17dH-49" value="" style="edgeStyle=elbowEdgeStyle;elbow=horizontal;verticalAlign=bottom;endArrow=open;endSize=8;endFill=1;rounded=0;exitX=1;exitY=0.5;exitDx=0;exitDy=0;entryX=0;entryY=0.5;entryDx=0;entryDy=0;" parent="3" source="cdu1bLbmDguMT37D17dH-47" target="cdu1bLbmDguMT37D17dH-48" edge="1">
          <mxGeometry x="-1040" y="-348" as="geometry">
            <mxPoint x="660" y="1000" as="targetPoint" />
            <mxPoint x="660.1399999999999" y="985" as="sourcePoint" />
          </mxGeometry>
        </mxCell>
        <mxCell id="cdu1bLbmDguMT37D17dH-50" value="GB_a&#xa;reached" style="rhombus;fontSize=9;" parent="3" vertex="1">
          <mxGeometry x="745" y="880" width="80" height="40" as="geometry" />
        </mxCell>
        <mxCell id="cdu1bLbmDguMT37D17dH-51" value="" style="edgeStyle=elbowEdgeStyle;elbow=horizontal;verticalAlign=bottom;endArrow=open;endSize=8;endFill=1;rounded=0;exitX=0.5;exitY=0;exitDx=0;exitDy=0;entryX=0.5;entryY=1;entryDx=0;entryDy=0;" parent="3" source="cdu1bLbmDguMT37D17dH-48" target="cdu1bLbmDguMT37D17dH-50" edge="1">
          <mxGeometry x="-1800" y="-468" as="geometry">
            <mxPoint x="740" y="1010" as="targetPoint" />
            <mxPoint x="490" y="1010" as="sourcePoint" />
          </mxGeometry>
        </mxCell>
        <mxCell id="cdu1bLbmDguMT37D17dH-52" value="" style="edgeStyle=elbowEdgeStyle;elbow=horizontal;align=left;verticalAlign=bottom;endArrow=open;endSize=8;endFill=1;rounded=0;exitX=1;exitY=0.5;exitDx=0;exitDy=0;entryX=1;entryY=0.5;entryDx=0;entryDy=0;" parent="3" source="cdu1bLbmDguMT37D17dH-50" target="cdu1bLbmDguMT37D17dH-48" edge="1">
          <mxGeometry x="-1" relative="1" as="geometry">
            <mxPoint x="595" y="513" as="targetPoint" />
            <Array as="points">
              <mxPoint x="900" y="970" />
            </Array>
            <mxPoint x="580" y="794" as="sourcePoint" />
          </mxGeometry>
        </mxCell>
        <mxCell id="cdu1bLbmDguMT37D17dH-53" value="&lt;div&gt;false&lt;/div&gt;" style="edgeLabel;html=1;align=center;verticalAlign=middle;resizable=0;points=[];" parent="cdu1bLbmDguMT37D17dH-52" vertex="1" connectable="0">
          <mxGeometry x="0.2669" relative="1" as="geometry">
            <mxPoint x="-17" as="offset" />
          </mxGeometry>
        </mxCell>
        <mxCell id="cdu1bLbmDguMT37D17dH-54" value="" style="ellipse;shape=endState;fillColor=#000000;strokeColor=#000000;" parent="3" vertex="1">
          <mxGeometry x="770" y="610" width="30" height="30" as="geometry" />
        </mxCell>
        <mxCell id="cdu1bLbmDguMT37D17dH-55" value="" style="edgeStyle=elbowEdgeStyle;elbow=horizontal;align=left;verticalAlign=bottom;endArrow=open;endSize=8;endFill=1;rounded=0;entryX=0.5;entryY=1;entryDx=0;entryDy=0;exitX=0.5;exitY=0;exitDx=0;exitDy=0;" parent="3" source="cdu1bLbmDguMT37D17dH-50" target="cdu1bLbmDguMT37D17dH-57" edge="1">
          <mxGeometry x="-1" relative="1" as="geometry">
            <mxPoint x="1044" y="586" as="targetPoint" />
            <Array as="points">
              <mxPoint x="785" y="770" />
            </Array>
            <mxPoint x="964" y="659" as="sourcePoint" />
          </mxGeometry>
        </mxCell>
        <mxCell id="cdu1bLbmDguMT37D17dH-56" value="true" style="edgeLabel;html=1;align=center;verticalAlign=middle;resizable=0;points=[];" parent="cdu1bLbmDguMT37D17dH-55" vertex="1" connectable="0">
          <mxGeometry x="0.2669" relative="1" as="geometry">
            <mxPoint x="-17" as="offset" />
          </mxGeometry>
        </mxCell>
        <mxCell id="cdu1bLbmDguMT37D17dH-57" value="drop resource" style="rounded=1;" parent="3" vertex="1">
          <mxGeometry x="730" y="714" width="110" height="50" as="geometry" />
        </mxCell>
        <mxCell id="cdu1bLbmDguMT37D17dH-58" value="" style="edgeStyle=elbowEdgeStyle;elbow=horizontal;verticalAlign=bottom;endArrow=open;endSize=8;endFill=1;rounded=0;exitX=0.5;exitY=0;exitDx=0;exitDy=0;entryX=0.5;entryY=1;entryDx=0;entryDy=0;" parent="3" source="cdu1bLbmDguMT37D17dH-57" target="cdu1bLbmDguMT37D17dH-54" edge="1">
          <mxGeometry x="-1040" y="-348" as="geometry">
            <mxPoint x="670.1399999999999" y="687" as="targetPoint" />
            <mxPoint x="670.1399999999999" y="647" as="sourcePoint" />
          </mxGeometry>
        </mxCell>
        <mxCell id="zHzQKIZAMhXTeBf150YC-26" value="move from SP to GB_a" style="fontSize=10;verticalAlign=middle;horizontal=1;rounded=1;" vertex="1" parent="1">
          <mxGeometry x="951" y="438" width="110" height="50" as="geometry" />
        </mxCell>
        <mxCell id="zHzQKIZAMhXTeBf150YC-27" value="" style="edgeStyle=elbowEdgeStyle;elbow=horizontal;verticalAlign=bottom;endArrow=open;endSize=8;endFill=1;rounded=0;exitX=1;exitY=0.5;exitDx=0;exitDy=0;entryX=0;entryY=0.5;entryDx=0;entryDy=0;" edge="1" parent="1" source="zHzQKIZAMhXTeBf150YC-26" target="cdu1bLbmDguMT37D17dH-23">
          <mxGeometry x="-70" y="-108" as="geometry">
            <mxPoint x="1090" y="483" as="targetPoint" />
            <mxPoint x="1090" y="443" as="sourcePoint" />
          </mxGeometry>
        </mxCell>
      </root>
    </mxGraphModel>
  </diagram>
</mxfile>
